<svg width="20" height="20" viewBox="0 0 20 20" fill="none" xmlns="http://www.w3.org/2000/svg">
<path fill-rule="evenodd" clip-rule="evenodd" d="M5.79289 12.267C5.40237 12.6575 5.40237 13.2907 5.79289 13.6812C6.18342 14.0717 6.81658 14.0717 7.20711 13.6812L9.73703 11.1513L12.267 13.6812C12.6575 14.0717 13.2907 14.0717 13.6812 13.6812C14.0717 13.2907 14.0717 12.6575 13.6812 12.267L11.1512 9.73704L13.6812 7.20711C14.0717 6.81658 14.0717 6.18342 13.6812 5.79289C13.2907 5.40237 12.6575 5.40237 12.267 5.79289L9.73703 8.32283L7.20711 5.7929C6.81658 5.40238 6.18342 5.40238 5.79289 5.7929C5.40237 6.18343 5.40237 6.81659 5.79289 7.20711L8.32282 9.73704L5.79289 12.267Z" fill="#DE7F3A"/>
</svg>
