<svg width="34" height="34" viewBox="0 0 34 34" fill="none" xmlns="http://www.w3.org/2000/svg">
<path fill-rule="evenodd" clip-rule="evenodd" d="M17 25C21.4183 25 25 21.4183 25 17C25 12.5817 21.4183 9 17 9C12.5817 9 9 12.5817 9 17C9 21.4183 12.5817 25 17 25ZM17 27C22.5228 27 27 22.5228 27 17C27 11.4772 22.5228 7 17 7C11.4772 7 7 11.4772 7 17C7 22.5228 11.4772 27 17 27ZM17 11.7143C17.5523 11.7143 18 12.162 18 12.7143V16H21.2857C21.838 16 22.2857 16.4477 22.2857 17C22.2857 17.5523 21.838 18 21.2857 18H18V21.2857C18 21.838 17.5523 22.2857 17 22.2857C16.4477 22.2857 16 21.838 16 21.2857V18H12.7143C12.162 18 11.7143 17.5523 11.7143 17C11.7143 16.4477 12.162 16 12.7143 16H16V12.7143C16 12.162 16.4477 11.7143 17 11.7143Z" fill="#DE7F3A"/>
</svg>
