<svg width="34" height="34" viewBox="0 0 34 34" fill="none" xmlns="http://www.w3.org/2000/svg">
<path fill-rule="evenodd" clip-rule="evenodd" d="M25 17C25 21.4183 21.4183 25 17 25C12.5817 25 9 21.4183 9 17C9 12.5817 12.5817 9 17 9C21.4183 9 25 12.5817 25 17ZM27 17C27 22.5228 22.5228 27 17 27C11.4772 27 7 22.5228 7 17C7 11.4772 11.4772 7 17 7C22.5228 7 27 11.4772 27 17ZM21.2861 18C21.8384 18 22.2861 17.5523 22.2861 17C22.2861 16.4477 21.8384 16 21.2861 16H12.7147C12.1624 16 11.7147 16.4477 11.7147 17C11.7147 17.5523 12.1624 18 12.7147 18H21.2861Z" fill="#DE7F3A"/>
</svg>
