<svg width="152" height="46" viewBox="0 0 152 46" fill="none" xmlns="http://www.w3.org/2000/svg">
<mask id="mask0_245_238" style="mask-type:alpha" maskUnits="userSpaceOnUse" x="0" y="0" width="46" height="46">
<path fill-rule="evenodd" clip-rule="evenodd" d="M23 46C35.7025 46 46 35.7025 46 23C46 10.2975 35.7025 0 23 0C10.2975 0 0 10.2975 0 23C0 35.7025 10.2975 46 23 46ZM23.1372 10.9742C25.1575 10.9742 26.7952 9.33639 26.7952 7.3161C26.7952 5.29582 25.1575 3.65805 23.1372 3.65805C21.1169 3.65805 19.4791 5.29582 19.4791 7.3161C19.4791 9.33639 21.1169 10.9742 23.1372 10.9742Z" fill="#E8C261"/>
</mask>
<g mask="url(#mask0_245_238)">
<path fill-rule="evenodd" clip-rule="evenodd" d="M23 46C35.7025 46 46 35.7025 46 23C46 10.2975 35.7025 0 23 0C10.2975 0 0 10.2975 0 23C0 35.7025 10.2975 46 23 46ZM23.1372 10.9742C25.1575 10.9742 26.7952 9.33639 26.7952 7.3161C26.7952 5.29582 25.1575 3.65805 23.1372 3.65805C21.1169 3.65805 19.4791 5.29582 19.4791 7.3161C19.4791 9.33639 21.1169 10.9742 23.1372 10.9742Z" fill="#E8C261"/>
<ellipse cx="10.7667" cy="18.8147" rx="10.7667" ry="18.8147" transform="matrix(0.985652 0.168791 -0.14806 0.988978 -0.555786 12.5288)" fill="#675644"/>
<ellipse cx="10.7667" cy="18.8147" rx="10.7667" ry="18.8147" transform="matrix(-0.985652 0.168791 0.14806 0.988978 46.6069 12.5288)" fill="#675644"/>
<ellipse cx="23.0573" cy="35.0205" rx="17.6195" ry="18.8443" fill="#7B6951"/>
<ellipse cx="15.7719" cy="28.7759" rx="1.96346" ry="4.31044" fill="#1D1C1A"/>
<ellipse cx="30.3429" cy="28.7759" rx="1.96346" ry="4.31044" fill="#1D1C1A"/>
<path d="M23.4191 36.5125C25.9874 36.5125 28.0694 36.8441 28.0694 38.9441C28.0694 40.287 24.7108 41.8177 23.4191 41.8177C22.2307 41.8177 18.7688 40.287 18.7688 38.9441C18.7688 36.7888 20.8508 36.5125 23.4191 36.5125Z" fill="#1D1C1A"/>
</g>
<path d="M61.1514 15.1768H52.6992V11.1045H74.2471V15.1768H65.7949V34H61.1514V15.1768ZM73.6652 22.4863C73.6652 20.7578 73.9826 19.1758 74.6174 17.7402C75.2521 16.3047 76.1408 15.0742 77.2834 14.0488C78.4357 13.0137 79.8127 12.2129 81.4143 11.6465C83.0256 11.0801 84.8078 10.7969 86.7609 10.7969C88.7043 10.7969 90.4816 11.0801 92.093 11.6465C93.7043 12.2129 95.0812 13.0137 96.2238 14.0488C97.3762 15.0742 98.2697 16.3047 98.9045 17.7402C99.5393 19.1758 99.8566 20.7578 99.8566 22.4863C99.8566 24.2246 99.5393 25.8213 98.9045 27.2764C98.2697 28.7217 97.3762 29.9668 96.2238 31.0117C95.0812 32.0566 93.7043 32.8721 92.093 33.458C90.4816 34.0342 88.7043 34.3223 86.7609 34.3223C84.8078 34.3223 83.0256 34.0342 81.4143 33.458C79.8127 32.8721 78.4357 32.0566 77.2834 31.0117C76.1408 29.9668 75.2521 28.7217 74.6174 27.2764C73.9826 25.8213 73.6652 24.2246 73.6652 22.4863ZM78.3088 22.4863C78.3088 23.668 78.5187 24.7324 78.9387 25.6797C79.3684 26.627 79.9592 27.4375 80.7111 28.1113C81.4729 28.7754 82.3664 29.2881 83.3918 29.6494C84.427 30.0107 85.55 30.1914 86.7609 30.1914C87.9719 30.1914 89.09 30.0107 90.1154 29.6494C91.1506 29.2881 92.0441 28.7754 92.7961 28.1113C93.548 27.4375 94.1389 26.627 94.5686 25.6797C94.9982 24.7324 95.2131 23.668 95.2131 22.4863C95.2131 21.3047 94.9982 20.2451 94.5686 19.3076C94.1389 18.3701 93.548 17.5791 92.7961 16.9346C92.0441 16.2803 91.1506 15.7822 90.1154 15.4404C89.09 15.0986 87.9719 14.9277 86.7609 14.9277C85.55 14.9277 84.427 15.0986 83.3918 15.4404C82.3664 15.7822 81.4729 16.2803 80.7111 16.9346C79.9592 17.5791 79.3684 18.3701 78.9387 19.3076C78.5187 20.2451 78.3088 21.3047 78.3088 22.4863ZM106.574 11.1045H111.217V22.9551L123.302 11.1045H129.25L117.97 22.0322L129.25 34H123.068L114.63 25.2695L111.217 28.5654V34H106.574V11.1045ZM126.471 11.1045H131.114V23.7168C131.114 24.752 131.256 25.6748 131.539 26.4854C131.822 27.2861 132.242 27.9648 132.799 28.5215C133.365 29.0781 134.063 29.5029 134.893 29.7959C135.723 30.0791 136.69 30.2207 137.794 30.2207C138.887 30.2207 139.849 30.0791 140.679 29.7959C141.519 29.5029 142.218 29.0781 142.774 28.5215C143.341 27.9648 143.765 27.2861 144.049 26.4854C144.332 25.6748 144.473 24.752 144.473 23.7168V11.1045H149.117V24.2734C149.117 25.7773 148.863 27.1445 148.355 28.375C147.847 29.6055 147.11 30.6602 146.143 31.5391C145.177 32.418 143.99 33.0967 142.584 33.5752C141.187 34.0537 139.591 34.293 137.794 34.293C135.997 34.293 134.395 34.0537 132.989 33.5752C131.593 33.0967 130.411 32.418 129.444 31.5391C128.477 30.6602 127.74 29.6055 127.232 28.375C126.724 27.1445 126.471 25.7773 126.471 24.2734V11.1045Z" fill="black"/>
</svg>
